<?xml version="1.0" encoding="UTF-8" standalone="no"?>
<svg
   fill="#e5e5e6"
   viewBox="0 0 512 512"
   version="1.1"
   id="svg1"
   sodipodi:docname="instagram.svg"
   xml:space="preserve"
   inkscape:version="1.3 (0e150ed6c4, 2023-07-21)"
   xmlns:inkscape="http://www.inkscape.org/namespaces/inkscape"
   xmlns:sodipodi="http://sodipodi.sourceforge.net/DTD/sodipodi-0.dtd"
   xmlns="http://www.w3.org/2000/svg"
   xmlns:svg="http://www.w3.org/2000/svg"><defs
     id="defs1" /><sodipodi:namedview
     id="namedview1"
     pagecolor="#ffffff"
     bordercolor="#000000"
     borderopacity="0.25"
     inkscape:showpageshadow="2"
     inkscape:pageopacity="0.0"
     inkscape:pagecheckerboard="0"
     inkscape:deskcolor="#d1d1d1"
     inkscape:zoom="0.39404297"
     inkscape:cx="343.87113"
     inkscape:cy="107.85626"
     inkscape:window-width="1920"
     inkscape:window-height="1011"
     inkscape:window-x="0"
     inkscape:window-y="0"
     inkscape:window-maximized="1"
     inkscape:current-layer="svg1" /><link
     id="dark-mode"
     rel="stylesheet"
     type="text/css" /><style
     id="dark-mode-custom-style"
     type="text/css" /><path
     style="fill:#e5e5e6;fill-opacity:1;stroke-width:0.668452"
     d="M 170.45911,458.19737 C 132.11371,455.99819 105.97853,445.92898 85.670923,425.53078 76.244247,416.06203 70.774878,408.43771 65.266772,397.08724 57.140764,380.34214 53.219773,364.07093 51.494227,339.93453 50.402259,324.66023 50.40227,186.75839 51.49425,171.48444 53.251649,146.90296 56.949942,130.94733 64.622041,114.8468 69.768138,104.0473 75.399526,96.160241 84.319571,87.2594 100.34644,71.267024 119.46719,61.428579 143.92463,56.590099 c 18.45987,-3.65197 29.78608,-4.07132 109.8621,-4.067685 83.9847,0.0046 96.2681,0.546544 115.64242,5.109661 21.20585,4.994489 37.37141,13.365151 50.71431,26.260253 18.17596,17.566002 29.5831,40.383142 34.09924,68.206982 2.1728,13.38731 2.46333,22.70373 2.85546,91.57803 0.41065,72.10753 -0.0343,95.38241 -2.13156,111.37702 -4.88002,37.22661 -19.43236,63.00315 -45.76454,81.06265 -19.92509,13.66525 -41.80125,20.25076 -73.52983,22.13511 -12.90049,0.76616 -151.70164,0.72016 -165.21312,-0.0547 z m 170.84222,-36.63586 c 7.54533,-0.94702 22.60581,-3.81095 27.25189,-5.1823 4.16639,-1.22972 14.13173,-6.11116 18.52112,-9.07247 10.89522,-7.35025 17.88234,-15.26944 23.08754,-26.16699 4.69351,-9.82654 6.18812,-15.57369 8.02101,-30.84421 2.64941,-22.07254 2.71706,-24.4866 2.71706,-96.92564 0,-74.31355 -0.23052,-81.7545 -3.00382,-96.96734 -3.46201,-18.98977 -7.24965,-27.64366 -18.16419,-41.50107 -7.34452,-9.32469 -22.06829,-17.807597 -36.86487,-21.239149 -6.87899,-1.595344 -26.91963,-3.690249 -42.73958,-4.467683 -18.47998,-0.90816 -143.8355,-0.375861 -152.71598,0.648463 -9.16895,1.057629 -23.91181,3.980498 -29.60126,5.8687 -6.35646,2.109521 -14.49097,6.523579 -21.1831,11.494639 -15.27887,11.34946 -23.752489,27.69248 -26.568816,51.24316 -0.571542,4.77943 -1.197843,9.83897 -1.391772,11.24343 -2.361315,17.10066 -3.227301,119.6936 -1.325771,157.06122 1.010429,19.85611 1.8993,26.1547 5.922937,41.9704 3.511258,13.80179 13.876872,29.2634 24.884422,37.1182 10.28901,7.34212 21.96611,11.57726 37.71029,13.6771 23.51556,3.13632 26.11558,3.21051 104.94708,2.99437 49.79917,-0.13654 76.51136,-0.45274 80.49581,-0.95283 z M 233.83947,358.60445 c -29.03598,-5.11142 -56.05894,-24.04706 -71.59852,-50.17087 -9.6251,-16.18103 -14.36501,-36.17183 -13.53102,-57.06904 0.46711,-11.70623 1.78912,-19.17912 5.20336,-29.41191 10.26444,-30.76331 35.59725,-55.93116 66.14086,-65.71035 11.94854,-3.8256 16.83531,-4.47861 33.39839,-4.46309 16.54822,0.0155 21.62312,0.69213 33.33839,4.44489 8.84779,2.83417 15.2094,5.86395 22.70432,10.81312 24.56134,16.21879 41.61519,41.66816 46.20583,68.95294 4.15578,24.6999 0.89137,47.41016 -9.76224,67.91459 -15.44827,29.7326 -43.79381,50.26699 -75.98711,55.04722 -9.81322,1.45711 -26.78889,1.29377 -36.11226,-0.3475 z m 37.07379,-37.59737 c 24.18441,-6.29449 43.47689,-26.53449 49.17892,-51.5943 1.48522,-6.52717 1.44099,-21.06266 -0.0857,-28.07502 -5.38795,-24.75435 -24.8026,-45.36391 -48.84038,-51.84644 -6.8223,-1.83985 -22.11937,-2.5146 -29.61829,-1.30644 -14.8863,2.39837 -27.39647,9.11291 -38.30106,20.55732 -8.36789,8.78198 -13.9562,18.77452 -16.77978,30.00398 -2.1496,8.54923 -2.15555,25.35497 -0.0114,33.87606 2.71271,10.78318 7.82488,19.92542 15.97023,28.5599 10.71831,11.36205 23.07212,18.17763 38.09591,21.01749 7.97278,1.50705 22.15813,0.95044 30.39172,-1.19255 z m 82.95356,-151.61726 c -4.70689,-1.80875 -10.69602,-7.43775 -13.56601,-12.75036 -2.10399,-3.8947 -2.27212,-4.65107 -2.27212,-10.22199 0,-5.57094 0.16813,-6.32728 2.27212,-10.22198 2.98783,-5.5307 8.84826,-10.94544 13.89792,-12.84068 5.28542,-1.98379 13.08928,-1.70508 17.90417,0.63946 4.52344,2.20264 10.35519,8.18295 12.74035,13.06486 1.66946,3.41715 1.95942,4.80214 1.95942,9.35834 0,4.49804 -0.29637,5.95212 -1.86536,9.15259 -2.80175,5.71463 -7.12885,10.128 -12.62697,12.87864 -4.21109,2.10671 -5.2924,2.36346 -9.82271,2.33247 -3.43881,-0.0235 -6.23612,-0.475 -8.62081,-1.39135 z"
     id="path2" /><title
     id="title1">ionicons-v5_logos</title></svg>
